{"title":"The Savage Eye Christmas Special 2012 RTE HDTV 720P x264 AC3 DeV","uid":8165511,"size":479961449,"categoryP":"video","categoryS":"hd___tv_shows","magnet":"?xt=urn:btih:8e0dffd2ac9681f87671b4d1f48247fbd201f6ba&amp;dn=The+Savage+Eye+Christmas+Special+2012+RTE+HDTV+720P+x264+AC3+DeV&amp;tr=udp%3A%2F%2Ftracker.openbittorrent.com%3A80&amp;tr=udp%3A%2F%2Fopen.demonii.com%3A1337&amp;tr=udp%3A%2F%2Ftracker.coppersurfer.tk%3A6969&amp;tr=udp%3A%2F%2Fexodus.desync.com%3A6969","seeders":2,"leechers":1,"uploader":"DeViL303","files":-1,"time":1361325723,"description":"The Savage Eye Christmas Special 2012 RTE HDTV 720P x264 AC3 DeViL303\n\nBroadcast 1 jan 2013 RTE TWO HD\n\nWhy do the Irish Love Christmas?'\n\nWhat makes an Irish Christmas? Horrible jumpers, forced togetherness, the office Christmas party, the Toy Show?\nThe Savage Eye is back for a special Christmas episode to give us some answers to the most important questions we have about Christmas. So join The President for Life, The Ministers, Bull Mick with some more familiar faces to take a long hard look at the Irish festive experience and why we love it so much.\n\nFeaturing a cast of well-known comedians David McSavage, John Colleary, Pat McDonnell, Dermot McMorrow, Sonya Kelly, Fred Cooke and Eleanor Tiernan, The Savage Eye continues its efforts to satirically document Irish society from its origins to the present day, blaming the British, the Government and the Catholic Church for almost all of our shortcomings.\n\nFile Info:\nComplete name                            : The Savage Eye Christmas Special 2012 RTE HDTV 720P x264 AC3 DeViL303.mkv\nFormat                                   : Matroska\nFormat version                           : Version 1\nFile size                                : 457 MiB\nDuration                                 : 25mn 35s\nOverall bit rate mode                    : Variable\nOverall bit rate                         : 2 498 Kbps\nEncoded date                             : UTC 2013-02-20 00:34:50\nWriting application                      : mkvmerge v2.5.3 ('Boogie') built on Mar  7 2009 15:00:41\nWriting library                          : libebml v0.7.7 + libmatroska v0.8.1\n\nVideo\nID                                       : 1\nFormat                                   : AVC\nFormat/Info                              : Advanced Video Codec\nFormat profile                           : &lt;a class=&quot;__cf_email__&quot; href=&quot;/cdn-cgi/l/email-protection&quot; data-cfemail=&quot;c088a9a7a8808cf4eef0&quot;&gt;[email&amp;#160;protected]&lt;/a&gt;&lt;script cf-hash='f9e31' type=&quot;text/javascript&quot;&gt;\n/* &lt;![CDATA[ */!function(){try{var t=&quot;currentScript&quot;in document?document.currentScript:function(){for(var t=document.getElementsByTagName(&quot;script&quot;),e=t.length;e--;)if(t[e].getAttribute(&quot;cf-hash&quot;))return t[e]}();if(t&amp;&amp;t.previousSibling){var e,r,n,i,c=t.previousSibling,a=c.getAttribute(&quot;data-cfemail&quot;);if(a){for(e=&quot;&quot;,r=parseInt(a.substr(0,2),16),n=2;a.length-n;n+=2)i=parseInt(a.substr(n,2),16)^r,e+=String.fromCharCode(i);e=document.createTextNode(e),c.parentNode.replaceChild(e,c)}}}catch(u){}}();/* ]]&gt; */&lt;/script&gt;\nFormat settings, CABAC                   : Yes\nFormat settings, ReFrames                : 3 frames\nCodec ID                                 : V_MPEG4/ISO/AVC\nDuration                                 : 25mn 35s\nBit rate mode                            : Variable\nBit rate                                 : 2 303 Kbps\nMaximum bit rate                         : 20.0 Mbps\nWidth                                    : 1 280 pixels\nHeight                                   : 720 pixels\nDisplay aspect ratio                     : 16:9\nFrame rate mode                          : Constant\nFrame rate                               : 25.000 fps\nColor space                              : YUV\nChroma subsampling                       : 4:2:0\nBit depth                                : 8 bits\nScan type                                : Progressive\nBits/(Pixel*Frame)                       : 0.100\nStream size                              : 413 MiB (90%)\nWriting library                          : x264 core 93 r1542M 5b86182\nDefault                                  : Yes\nForced                                   : No\n\nAudio\nID                                       : 2\nFormat                                   : AC-3\nFormat/Info                              : Audio Coding 3\nMode extension                           : CM (complete main)\nFormat settings, Endianness              : Big\nCodec ID                                 : A_AC3\nDuration                                 : 25mn 35s\nBit rate mode                            : Constant\nBit rate                                 : 192 Kbps\nChannel(s)                               : 2 channels\nChannel positions                        : Front: L R\nSampling rate                            : 48.0 KHz\nBit depth                                : 16 bits\nCompression mode                         : Lossy\nStream size                              : 35.1 MiB (8%)\nDefault                                  : Yes\nForced                                   : No","torrent":{"xt":"urn:btih:8e0dffd2ac9681f87671b4d1f48247fbd201f6ba","amp;dn":"The+Savage+Eye+Christmas+Special+2012+RTE+HDTV+720P+x264+AC3+DeV","amp;tr":["udp%3A%2F%2Ftracker.openbittorrent.com%3A80","udp%3A%2F%2Fopen.demonii.com%3A1337","udp%3A%2F%2Ftracker.coppersurfer.tk%3A6969","udp%3A%2F%2Fexodus.desync.com%3A6969"],"infoHash":"8e0dffd2ac9681f87671b4d1f48247fbd201f6ba","infoHashBuffer":{"type":"Buffer","data":[142,13,255,210,172,150,129,248,118,113,180,209,244,130,71,251,210,1,246,186]},"announce":[],"urlList":[]}}